<?xml version="1.0" encoding="utf-8"?>
<!-- Generator: Adobe Illustrator 21.0.0, SVG Export Plug-In . SVG Version: 6.00 Build 0)  -->
<svg version="1.1" id="Layer_1" xmlns="http://www.w3.org/2000/svg" xmlns:xlink="http://www.w3.org/1999/xlink" x="0px" y="0px"
	 viewBox="0 0 338 511.9" style="enable-background:new 0 0 338 511.9;" xml:space="preserve">
<style type="text/css">
	.st0{fill:#FF6600;}
</style>
<g>
	<path class="st0" d="M300.3,315.4c-7.9,0-14.3,6.4-14.3,14.3v93.9l-43.3-29.2c-4.8-3.3-11.2-3.3-16,0l-43.3,29.2v-53.3
		c0-7.9-6.4-14.3-14.3-14.3s-14.3,6.4-14.3,14.3v100.5l-43.3-29.2c-4.8-3.3-11.2-3.3-16,0l-43.3,29.2V290.9
		C82.4,320.1,123.7,338,169,338c93.2,0,169-75.8,169-169S262.2,0,169,0S0,75.8,0,169c0,31.3,8.6,60.6,23.4,85.7v242.9
		c0,5.3,2.9,10.2,7.6,12.6c4.7,2.5,10.3,2.2,14.7-0.8l57.6-38.8l57.6,38.8c2.4,1.6,5.2,2.4,8,2.4c2.3,0,4.6-0.6,6.7-1.7
		c4.7-2.5,7.6-7.3,7.6-12.6V458l51.3-34.5l57.6,38.8c2.4,1.6,5.2,2.4,8,2.4c2.3,0,4.6-0.6,6.7-1.7c4.7-2.5,7.6-7.3,7.6-12.6V329.7
		C314.6,321.8,308.2,315.4,300.3,315.4z M169,28.6c77.4,0,140.4,63,140.4,140.4s-63,140.4-140.4,140.4S28.6,246.4,28.6,169
		S91.6,28.6,169,28.6z"/>
	<path class="st0" d="M119.6,191.9l-6.8,39.4c-0.9,5.4,1.3,10.8,5.7,14s10.3,3.6,15.1,1.1l35.4-18.6l35.4,18.6
		c2.1,1.1,4.4,1.6,6.7,1.6c3,0,5.9-0.9,8.4-2.7c4.4-3.2,6.6-8.6,5.7-14l-6.8-39.4l28.7-27.9c3.9-3.8,5.3-9.5,3.6-14.7
		c-1.7-5.2-6.2-9-11.6-9.7l-39.6-5.8l-17.7-35.9c-2.4-4.9-7.4-8-12.8-8c-5.5,0-10.4,3.1-12.8,8l-17.7,35.9l-39.6,5.8
		c-5.4,0.8-9.9,4.6-11.6,9.7c-1.7,5.2-0.3,10.9,3.6,14.7L119.6,191.9z M150,161c4.7-0.7,8.7-3.6,10.8-7.8l8.2-16.6l8.2,16.6
		c2.1,4.2,6.1,7.2,10.8,7.8l18.3,2.7L193,176.6c-3.4,3.3-4.9,8-4.1,12.7l3.1,18.3l-16.4-8.6c-2.1-1.1-4.4-1.6-6.7-1.6
		s-4.6,0.5-6.7,1.6l-16.4,8.6l3.1-18.3c0.8-4.6-0.7-9.4-4.1-12.7l-13.3-12.9L150,161z"/>
</g>
</svg>
