<?xml version="1.0" encoding="utf-8"?>
<!-- Generator: Adobe Illustrator 21.0.2, SVG Export Plug-In . SVG Version: 6.00 Build 0)  -->
<svg version="1.1" id="Layer_1" xmlns="http://www.w3.org/2000/svg" xmlns:xlink="http://www.w3.org/1999/xlink" x="0px" y="0px"
	 viewBox="0 0 512 512" style="enable-background:new 0 0 512 512;" xml:space="preserve">
<style type="text/css">
	.st0{display:none;fill:#FF7E0A;}
	.st1{fill:#FF7E0A;}
	.st2{display:none;}
	.st3{display:inline;fill:#FF7E0A;}
	.st4{fill:#FFFFFF;}
</style>
<g>
	<path class="st0" d="M236.8,219.2L203,185.4l-25-25c-6.6-6.6-15.6-10.3-25-10.3H70.6v-35.3c0-9.8-7.9-17.7-17.7-17.7H35.3
		c-9.8,0-17.7,7.9-17.7,17.7v35.3C7.9,150.1,0,158,0,167.7v326.6c0,9.7,7.9,17.7,17.7,17.7h211.9c9.7,0,17.7-7.9,17.7-17.7V244.1
		C247.2,234.8,243.5,225.8,236.8,219.2"/>
	<path class="st1" d="M501.7,130.9c-22.5-22.5-45.1-45.1-67.6-67.6c-6.6-6.6-15.6-10.3-25-10.3H291.3V17.7c0-9.7-7.9-17.7-17.7-17.7
		h-35.3c-9.7,0-17.7,7.9-17.7,17.7V53h-8.8c-19.5,0-35.3,15.8-35.3,35.3v70.9c0.5,0.4,1.1,0.8,1.5,1.2c0.1,5.3,0.1,10.6,0.2,15.9
		c0.7,7.6,1.4,15.1,2,22.7c0.5,4.8,0.9,9.7,1.3,14.7c0.5,6.3,1,12.5,1.3,18.7c0.9,53.8,1.8,107.6,2.7,161.3c4.8,14.9,10.5,39.2,8,69
		c-1.7,20.5-6.7,37.3-11.3,49.4c98.1,0,196.2,0,294.4,0c19.5,0,35.3-15.8,35.3-35.3c0-106.9,0-213.9,0-320.8
		C508.6,147.5,505.1,139.2,501.7,130.9z"/>
	<path class="st0" d="M61.8,423.7V238.3c0-9.8,7.9-17.7,17.7-17.7h54.5c4.7,0,9.2,1.9,12.5,5.2l33.8,33.8c3.3,3.3,5.2,7.8,5.2,12.5
		v151.6c0,9.8-7.9,17.7-17.7,17.7H79.5C69.7,441.4,61.8,433.5,61.8,423.7"/>
	<g class="st2">
		<path class="st3" d="M132.4,300.1h-26.5c-4.9,0-8.8-3.9-8.8-8.8s4-8.8,8.8-8.8h26.5c4.9,0,8.8,3.9,8.8,8.8
			C141.2,296.2,137.3,300.1,132.4,300.1"/>
		<path class="st3" d="M132.4,344.3h-26.5c-4.9,0-8.8-3.9-8.8-8.8s4-8.8,8.8-8.8h26.5c4.9,0,8.8,3.9,8.8,8.8
			C141.2,340.3,137.3,344.3,132.4,344.3"/>
		<path class="st3" d="M132.4,388.4h-26.5c-4.9,0-8.8-3.9-8.8-8.8s4-8.8,8.8-8.8h26.5c4.9,0,8.8,3.9,8.8,8.8
			C141.2,384.5,137.3,388.4,132.4,388.4"/>
	</g>
	<polygon class="st1" points="476.7,512 176.6,512 176.6,88.3 	"/>
	<path class="st4" d="M387.2,105.9h-140c-9.8,0-17.7,7.9-17.7,17.7v81c0,4.7,1.9,9.2,5.2,12.5l7.3,7.3c3.3,3.3,5.2,7.8,5.2,12.5
		v204.6c0,9.8,7.9,17.7,17.7,17.7h176.6c9.7,0,17.7-7.9,17.7-17.7V177.8c0-9.4-3.7-18.3-10.3-25l-36.6-36.6
		C405.5,109.7,396.5,105.9,387.2,105.9"/>
	<g>
		<path class="st1" d="M368.9,190.5l-16.6-33.2L339,184c-7.5,15.1-15.2,30.3-25.5,43.6c-4.3,5.6-7,11.8-7.6,19.7
			c-1.6,22.6,14.3,44.1,36.5,48.7c30.1,6.2,56.5-16.6,56.5-45.5c0-7.5-2.2-13.8-5.7-19.4C384.7,217.7,375.9,204.6,368.9,190.5"/>
		<path class="st0" d="M282.5,388.4c-4.9,0-8.8-3.9-8.8-8.8s4-8.8,8.8-8.8h123.6c4.9,0,8.8,3.9,8.8,8.8c0,4.9-4,8.8-8.8,8.8"/>
		<path class="st1" d="M406.1,388.4"/>
	</g>
</g>
</svg>
