<?xml version="1.0" encoding="utf-8"?>
<!-- Generator: Adobe Illustrator 21.0.0, SVG Export Plug-In . SVG Version: 6.00 Build 0)  -->
<svg version="1.1" id="Layer_1" xmlns="http://www.w3.org/2000/svg" xmlns:xlink="http://www.w3.org/1999/xlink" x="0px" y="0px"
	 viewBox="0 0 489.8 479.4" style="enable-background:new 0 0 489.8 479.4;" xml:space="preserve">
<style type="text/css">
	.st0{fill:#FF7E0A;}
</style>
<g>
	<g>
		<path class="st0" d="M472.8,75.8c-17.9-21.1-41.5-33.4-57.7-40.8C376.3,17.1,334.3,6.6,282.8,1.8c-62.2-5.5-123.1,1.9-180.8,22
			h-0.1c-22.1,7.9-50.6,19.6-74.7,40.8C8.2,81.4-0.9,102,0.1,125.8c0,0.3,0,0.6,0.1,0.9c0.8,8.5,0.6,17.3,0.5,26.5
			c-0.1,3.9-0.1,7.9-0.1,12c0,0.1,0,0.2,0,0.3c0.6,29.7,20.7,49.6,50,49.6h70.3c14.1,0.3,26.3-4.3,35.3-13.1
			c9.2-9,14.1-21.5,14.1-36.1v-37.1c0-9.9-8.1-18-18-18s-18,8.1-18,18v37.1c0,3.3-0.6,7.7-3.2,10.4c-2.5,2.4-6.6,2.9-9.6,2.8
			c-0.1,0-0.3,0-0.4,0H50.5c-9.6,0-13.7-4.2-14-14.2c0-3.6,0.1-7.3,0.1-11.1c0.2-9.7,0.3-19.7-0.6-29.9c-0.4-12.8,4.2-22.8,15-32.3
			c19.4-17.1,43.8-27,62.9-33.8c52.9-18.4,108.7-25.2,165.7-20.1c47.2,4.4,85.5,13.9,120.5,30c21,9.6,35,19.3,45.2,31.3
			c5.9,7.1,8.7,14.7,8.7,24v43.5c-0.3,12-7.7,13.4-13.2,13.4c-0.2,0-0.4,0-0.6,0c-7.4,0.3-14.8,0.2-22.7,0.1c-4,0-8.1-0.1-12.3-0.1
			h-34.8c-10.3,0-14-3.7-14-14c0-4,0-7.4-0.1-10.6c-0.1-8.4-0.1-15,0.4-25.1c0-0.3,0-0.7,0-1c0-15.8-10.8-21.2-14.4-23
			c-0.4-0.2-0.8-0.4-1.2-0.5c-16-6.6-33.2-10.8-55.8-13.4c-0.1,0-0.2,0-0.2,0c-28.2-2.9-54-2.9-79.1-0.1c-9.9,1.1-17,10.1-15.8,19.9
			c1.1,9.9,10.1,17,19.9,15.8c22.3-2.6,45.6-2.5,71.1,0.1c15.7,1.8,28.1,4.4,39.1,8.2c-0.2,7.1-0.2,12.9-0.1,19.3
			c0,3.1,0.1,6.5,0.1,10.3c0,30.4,19.6,50,50,50h34.8c4,0,8,0,11.9,0.1c3.9,0,7.9,0.1,11.9,0.1s8.1,0,12.1-0.2
			c28.2-0.2,48.2-20.2,48.8-48.8c0-0.1,0-0.3,0-0.4v-43.7C490,105.2,484.2,89.3,472.8,75.8z"/>
	</g>
</g>
<g>
	<g>
		<path class="st0" d="M259.9,255.2h-29.7c-9.9,0-18,8.1-18,18s8,18,18,18h29.7c9.9,0,18-8.1,18-18S269.8,255.2,259.9,255.2z"/>
	</g>
</g>
<g>
	<g>
		<path class="st0" d="M364.4,255.2h-29.7c-9.9,0-18,8.1-18,18s8.1,18,18,18h29.7c9.9,0,18-8.1,18-18S374.3,255.2,364.4,255.2z"/>
	</g>
</g>
<g>
	<g>
		<path class="st0" d="M155.3,255.2h-29.7c-9.9,0-18,8.1-18,18s8,18,18,18h29.7c9.9,0,18-8.1,18-18S165.2,255.2,155.3,255.2z"/>
	</g>
</g>
<g>
	<g>
		<path class="st0" d="M259.9,318h-29.7c-9.9,0-18,8.1-18,18s8,18,18,18h29.7c9.9,0,18-8.1,18-18C277.9,326.1,269.8,318,259.9,318z"
			/>
	</g>
</g>
<g>
	<g>
		<path class="st0" d="M364.4,318h-29.7c-9.9,0-18,8.1-18,18s8.1,18,18,18h29.7c9.9,0,18-8.1,18-18C382.4,326.1,374.3,318,364.4,318
			z"/>
	</g>
</g>
<g>
	<g>
		<path class="st0" d="M155.3,318h-29.7c-9.9,0-18,8.1-18,18s8,18,18,18h29.7c9.9,0,18-8.1,18-18C173.3,326.1,165.2,318,155.3,318z"
			/>
	</g>
</g>
<g>
	<g>
		<path class="st0" d="M259.9,380.7h-29.7c-9.9,0-18,8.1-18,18s8,18,18,18h29.7c9.9,0,18-8.1,18-18S269.8,380.7,259.9,380.7z"/>
	</g>
</g>
<g>
	<g>
		<path class="st0" d="M364.4,380.7h-29.7c-9.9,0-18,8.1-18,18s8.1,18,18,18h29.7c9.9,0,18-8.1,18-18S374.3,380.7,364.4,380.7z"/>
	</g>
</g>
<g>
	<g>
		<path class="st0" d="M155.3,380.7h-29.7c-9.9,0-18,8.1-18,18s8,18,18,18h29.7c9.9,0,18-8.1,18-18S165.2,380.7,155.3,380.7z"/>
	</g>
</g>
<g>
	<g>
		<path class="st0" d="M259.9,443.4h-29.7c-9.9,0-18,8.1-18,18s8,18,18,18h29.7c9.9,0,18-8.1,18-18S269.8,443.4,259.9,443.4z"/>
	</g>
</g>
</svg>
