<?xml version="1.0" encoding="utf-8"?>
<!-- Generator: Adobe Illustrator 21.0.0, SVG Export Plug-In . SVG Version: 6.00 Build 0)  -->
<svg version="1.1" id="Layer_1" xmlns="http://www.w3.org/2000/svg" xmlns:xlink="http://www.w3.org/1999/xlink" x="0px" y="0px"
	 viewBox="0 0 512.4 338.3" style="enable-background:new 0 0 512.4 338.3;" xml:space="preserve">
<style type="text/css">
	.st0{fill:#FF6600;}
</style>
<path class="st0" d="M497.8,8.5H261.3c-7.8,0-14.2,6.3-14.2,14.2V255h-34.5v-71.8c0-7.8-6.3-14.2-14.2-14.2s-14.2,6.3-14.2,14.2
	v71.7h-19.4c-8.7-24.1-31.7-41.3-58.7-41.3s-50,17.3-58.7,41.3h-9.5c-5.3,0-9.6-4.3-9.6-9.6v-47.5c0-2.8,1.2-5.5,3.4-7.3
	c0.3-0.2,0.5-0.4,0.8-0.7l34.3-33.3h51.9c7.8,0,14.2-6.3,14.2-14.2c0-7.8-6.3-14.2-14.2-14.2H79.8l25.8-67.9
	c8.8-19.3,28.1-31.8,49.2-31.9l29.4,0.1v57.4c0,7.8,6.3,14.2,14.2,14.2s14.2-6.3,14.2-14.2V14.3c0-7.8-6.3-14.1-14.1-14.2L154.9,0
	c-32.5,0.1-62,19.3-75.3,49c-0.1,0.2-0.2,0.5-0.3,0.7l-33.1,87.2l-33.1,32.3C4.8,176.4,0,186.8,0,197.8v47.5
	c0,20.9,17,37.9,37.9,37.9h6.3c3.6,31,30,55.1,61.9,55.1s58.3-24.1,61.9-55.1h149.5c3.6,31,30,55.1,61.9,55.1
	c7.8,0,14.2-6.3,14.2-14.2s-6.3-14.2-14.2-14.2c-18.8,0-34-15.3-34-34c0-1.7,0.1-3.3,0.4-4.9c0.1-1,0.3-1.9,0.6-2.9
	c0-0.1,0-0.2,0.1-0.3c0.2-0.9,0.5-1.8,0.8-2.7c0-0.1,0.1-0.2,0.1-0.3c0.3-0.9,0.6-1.8,1-2.6c0-0.1,0-0.1,0.1-0.2
	c4.5-10.1,13.9-17.6,24.9-19.6c0,0,0,0,0.1,0c1-0.2,2-0.3,2.9-0.4c0.1,0,0.1,0,0.2,0c1-0.1,2-0.1,3-0.1s2,0.1,3,0.1
	c0.1,0,0.1,0,0.2,0c1,0.1,2,0.2,2.9,0.4c0,0,0,0,0.1,0c11,2.1,20.3,9.5,24.9,19.6c0,0.1,0,0.1,0.1,0.2c0.4,0.9,0.7,1.7,1,2.6
	c0,0.1,0.1,0.2,0.1,0.3c0.3,0.9,0.6,1.8,0.8,2.7c0,0.1,0,0.2,0.1,0.3c0.2,0.9,0.4,1.9,0.6,2.9c0.2,1.6,0.4,3.2,0.4,4.9
	c0,7.8,6.3,14.2,14.2,14.2c5.2,0,9.7-2.8,12.1-6.9h58.1c7.8,0,14.2-6.3,14.2-14.2V22.6C512,14.8,505.7,8.5,497.8,8.5z M106.1,310
	c-18.8,0-34-15.3-34-34s15.3-34,34-34s34,15.3,34,34S124.9,310,106.1,310z M483.7,254.9h-45.5c-0.3-0.7-0.5-1.4-0.8-2.1
	c0-0.1-0.1-0.2-0.1-0.3c-0.3-0.7-0.6-1.4-0.9-2.1c0,0,0,0,0-0.1c-8.7-19.3-27-33.4-48.8-36.3c-0.4,0-0.7-0.1-1.1-0.1
	c-0.5-0.1-0.9-0.1-1.4-0.1c-0.6-0.1-1.1-0.1-1.7-0.1c-0.4,0-0.7,0-1.1-0.1c-0.9,0-1.9-0.1-2.9-0.1s-1.9,0-2.9,0.1
	c-0.4,0-0.7,0-1.1,0.1c-0.6,0-1.1,0.1-1.7,0.1c-0.5,0-0.9,0.1-1.4,0.1c-0.4,0-0.7,0.1-1.1,0.1c-21.8,2.8-40,16.9-48.8,36.2
	c0,0,0,0.1-0.1,0.1c-0.3,0.7-0.6,1.4-0.9,2.1c0,0.1-0.1,0.2-0.1,0.3c-0.3,0.7-0.5,1.3-0.8,2h-45.3l0,0V36.8h208.2L483.7,254.9
	L483.7,254.9z"/>
</svg>
