<?xml version="1.0" encoding="utf-8"?>
<!-- Generator: Adobe Illustrator 21.0.0, SVG Export Plug-In . SVG Version: 6.00 Build 0)  -->
<svg version="1.1" id="Слой_1" xmlns="http://www.w3.org/2000/svg" xmlns:xlink="http://www.w3.org/1999/xlink" x="0px" y="0px"
	 viewBox="0 0 421 422.6" style="enable-background:new 0 0 421 422.6;" xml:space="preserve">
<style type="text/css">
	.st0{fill:#FF6600;stroke:#FF6600;stroke-width:11;stroke-miterlimit:10;}
	.st1{fill:none;stroke:#FF6600;stroke-width:25;stroke-miterlimit:10;}
</style>
<path class="st0" d="M230.9,264.7L230.9,264.7c-3.8,0-6.8-3-6.8-6.8V54c0-3.8,3-6.8,6.8-6.8l0,0c3.8,0,6.8,3,6.8,6.8v203.9
	C237.7,261.6,234.7,264.7,230.9,264.7z"/>
<path class="st0" d="M121.2,58L121.2,58c-3.8,0-6.8-3-6.8-6.8V15.8c0-3.8,3-6.8,6.8-6.8l0,0c3.8,0,6.8,3,6.8,6.8v35.4
	C128,55,125,58,121.2,58z"/>
<path class="st0" d="M12.5,308.2L12.5,308.2c-3.8,0-6.8-3-6.8-6.8v-40.6c0-3.8,3-6.8,6.8-6.8l0,0c3.8,0,6.8,3,6.8,6.8v40.6
	C19.3,305.2,16.2,308.2,12.5,308.2z"/>
<path class="st0" d="M408.5,308.2L408.5,308.2c-3.8,0-6.8-3-6.8-6.8v-40.6c0-3.8,3-6.8,6.8-6.8l0,0c3.8,0,6.8,3,6.8,6.8v40.6
	C415.3,305.2,412.3,308.2,408.5,308.2z"/>
<path class="st0" d="M101.4,12.3L101.4,12.3c0-3.8,3-6.8,6.8-6.8h81.7c3.8,0,6.8,3,6.8,6.8l0,0c0,3.8-3,6.8-6.8,6.8h-81.7
	C104.4,19.1,101.4,16.1,101.4,12.3z"/>
<path class="st0" d="M6.1,301.7L6.1,301.7c0-3.8,3-6.8,6.8-6.8h395.6c3.8,0,6.8,3,6.8,6.8l0,0c0,3.8-3,6.8-6.8,6.8H12.9
	C9.2,308.5,6.1,305.4,6.1,301.7z"/>
<path class="st0" d="M176.1,58L176.1,58c-3.8,0-6.8-3-6.8-6.8V15.8c0-3.8,3-6.8,6.8-6.8l0,0c3.8,0,6.8,3,6.8,6.8v35.4
	C182.9,55,179.8,58,176.1,58z"/>
<path class="st0" d="M224.6,104.5L224.6,104.5c0-3.8,3-6.8,6.8-6.8h67.9c3.8,0,6.8,3,6.8,6.8l0,0c0,3.8-3,6.8-6.8,6.8h-67.9
	C227.6,111.3,224.6,108.2,224.6,104.5z"/>
<path class="st0" d="M224.6,156.5L224.6,156.5c0-3.8,3-6.8,6.8-6.8h67.9c3.8,0,6.8,3,6.8,6.8l0,0c0,3.8-3,6.8-6.8,6.8h-67.9
	C227.6,163.3,224.6,160.2,224.6,156.5z"/>
<path class="st0" d="M224.6,207.5L224.6,207.5c0-3.8,3-6.8,6.8-6.8h67.9c3.8,0,6.8,3,6.8,6.8l0,0c0,3.8-3,6.8-6.8,6.8h-67.9
	C227.6,214.3,224.6,211.2,224.6,207.5z"/>
<path class="st0" d="M299.2,264.7L299.2,264.7c-3.8,0-6.8-3-6.8-6.8V54c0-3.8,3-6.8,6.8-6.8l0,0c3.8,0,6.8,3,6.8,6.8v203.9
	C306,261.6,303,264.7,299.2,264.7z"/>
<path class="st1" d="M305.8,258.7H115.2c-56.7,0-102.7-46-102.7-102.7l0,0c0-56.7,46-102.7,102.7-102.7h190.6
	c56.7,0,102.7,46,102.7,102.7l0,0C408.5,212.7,362.5,258.7,305.8,258.7z"/>
<circle class="st1" cx="50.3" cy="376.2" r="33.9"/>
<circle class="st1" cx="148.6" cy="376.2" r="33.9"/>
<circle class="st1" cx="271.6" cy="376.2" r="33.9"/>
<circle class="st1" cx="369.9" cy="376.2" r="33.9"/>
</svg>
